<svg height="512pt" viewBox="0 0 512 512" width="512pt" xmlns="http://www.w3.org/2000/svg"><path d="m93.867188 145.066406c-4.710938 0-8.535157-3.8125-8.535157-8.53125v-9.253906c0-17.824219 4.847657-35.324219 14.023438-50.609375 7.574219-12.628906 11.578125-27.085937 11.578125-41.8125v-26.324219c0-4.722656 3.824218-8.535156 8.53125-8.535156 4.710937 0 8.535156 3.8125 8.535156 8.535156v26.324219c0 17.816406-4.847656 35.320313-14.019531 50.601563-7.578125 12.628906-11.582031 27.085937-11.582031 41.820312v9.253906c0 4.71875-3.820313 8.53125-8.53125 8.53125zm0 0"/><path d="m256 59.734375c-4.710938 0-8.535156-3.816406-8.535156-8.535156v-42.664063c0-4.722656 3.824218-8.535156 8.535156-8.535156s8.535156 3.8125 8.535156 8.535156v42.664063c0 4.71875-3.824218 8.535156-8.535156 8.535156zm0 0"/><path d="m324.265625 93.867188c-4.710937 0-8.53125-3.816407-8.53125-8.535157v-76.796875c0-4.722656 3.820313-8.535156 8.53125-8.535156s8.535156 3.8125 8.535156 8.535156v76.796875c0 4.71875-3.824219 8.535157-8.535156 8.535157zm0 0"/><path d="m418.132812 145.066406c-4.710937 0-8.53125-3.8125-8.53125-8.53125v-9.253906c0-14.734375-4.003906-29.191406-11.582031-41.820312-9.171875-15.28125-14.019531-32.785157-14.019531-50.601563v-26.324219c0-4.722656 3.824219-8.535156 8.535156-8.535156 4.707032 0 8.53125 3.8125 8.53125 8.535156v26.324219c0 14.726563 4.003906 29.183594 11.578125 41.8125 9.175781 15.285156 14.023438 32.785156 14.023438 50.609375v9.253906c0 4.71875-3.824219 8.53125-8.535157 8.53125zm0 0"/><path d="m55.464844 196.265625h-8.53125c-25.882813 0-46.933594-21.058594-46.933594-46.933594v-12.796875c0-4.722656 3.824219-8.535156 8.535156-8.535156h85.332032c4.710937 0 8.53125 3.8125 8.53125 8.535156v12.796875c0 25.875-21.050782 46.933594-46.933594 46.933594zm-38.398438-51.199219v4.265625c0 16.46875 13.398438 29.867188 29.867188 29.867188h8.53125c16.472656 0 29.867187-13.398438 29.867187-29.867188v-4.265625zm0 0"/><path d="m465.066406 196.265625h-8.53125c-25.882812 0-46.933594-21.058594-46.933594-46.933594v-12.796875c0-4.722656 3.820313-8.535156 8.53125-8.535156h85.332032c4.710937 0 8.535156 3.8125 8.535156 8.535156v12.796875c0 25.875-21.050781 46.933594-46.933594 46.933594zm-38.398437-51.199219v4.265625c0 16.46875 13.394531 29.867188 29.867187 29.867188h8.53125c16.46875 0 29.867188-13.398438 29.867188-29.867188v-4.265625zm0 0"/><path d="m256 230.398438c-51.753906 0-93.867188-42.109376-93.867188-93.863282 0-51.757812 42.113282-93.867187 93.867188-93.867187s93.867188 42.109375 93.867188 93.867187c0 51.753906-42.113282 93.863282-93.867188 93.863282zm0-170.664063c-42.351562 0-76.800781 34.449219-76.800781 76.800781 0 42.347656 34.449219 76.796875 76.800781 76.796875s76.800781-34.449219 76.800781-76.796875c0-42.351562-34.449219-76.800781-76.800781-76.800781zm0 0"/><path d="m273.066406 196.265625h-34.132812c-4.710938 0-8.535156-3.8125-8.535156-8.53125v-25.601563h-25.597657c-4.710937 0-8.535156-3.8125-8.535156-8.53125v-34.136718c0-4.71875 3.824219-8.53125 8.535156-8.53125h25.597657v-25.601563c0-4.71875 3.824218-8.53125 8.535156-8.53125h34.132812c4.710938 0 8.535156 3.8125 8.535156 8.53125v25.601563h25.597657c4.710937 0 8.535156 3.8125 8.535156 8.53125v34.136718c0 4.71875-3.824219 8.53125-8.535156 8.53125h-25.597657v25.601563c0 4.71875-3.824218 8.53125-8.535156 8.53125zm-25.601562-17.066406h17.070312v-25.597657c0-4.71875 3.820313-8.535156 8.53125-8.535156h25.601563v-17.066406h-25.601563c-4.710937 0-8.53125-3.8125-8.53125-8.535156v-25.597656h-17.070312v25.597656c0 4.722656-3.820313 8.535156-8.53125 8.535156h-25.601563v17.066406h25.601563c4.710937 0 8.53125 3.816406 8.53125 8.535156zm0 0"/><path d="m503.464844 145.066406h-162.132813c-4.710937 0-8.53125-3.8125-8.53125-8.53125 0-42.351562-34.449219-76.800781-76.800781-76.800781s-76.800781 34.449219-76.800781 76.800781c0 4.71875-3.820313 8.53125-8.53125 8.53125h-162.132813c-4.710937 0-8.535156-3.8125-8.535156-8.53125 0-24.296875 9.453125-47.121094 26.632812-64.300781 10.34375-10.34375 16.035157-24.082031 16.035157-38.707031v-8.816406c0-13.617188 11.082031-24.710938 24.710937-24.710938h377.242188c13.628906 0 24.710937 11.09375 24.710937 24.710938v8.808593c0 14.625 5.691407 28.363281 16.035157 38.707031 17.179687 17.175782 26.632812 40.011719 26.632812 64.308594 0 4.71875-3.824219 8.53125-8.535156 8.53125zm-153.980469-17.066406h144.972656c-1.886719-16.511719-9.234375-31.785156-21.15625-43.699219-13.566406-13.566406-21.035156-31.597656-21.035156-50.773437v-8.816406c0-4.214844-3.429687-7.644532-7.644531-7.644532h-377.242188c-4.214844 0-7.644531 3.429688-7.644531 7.644532v8.808593c0 19.171875-7.46875 37.203125-21.027344 50.773438-11.921875 11.921875-19.269531 27.203125-21.152343 43.707031h144.972656c4.316406-47.777344 44.585937-85.332031 93.472656-85.332031s89.15625 37.554687 93.484375 85.332031zm0 0"/><path d="m477.867188 512h-443.734376c-4.710937 0-8.53125-3.8125-8.53125-8.535156v-318.078125c0-2.773438 1.347657-5.367188 3.609376-6.964844 2.269531-1.601563 5.160156-2.003906 7.773437-1.074219 3.53125 1.246094 6.78125 1.851563 9.949219 1.851563h8.53125c12.519531 0 23.777344-8.003907 28.007812-19.925781 1.210938-3.394532 4.429688-5.671876 8.039063-5.671876h4.703125c3.609375 0 6.832031 2.277344 8.035156 5.671876 4.242188 11.921874 15.5 19.925781 28.015625 19.925781h8.535156c11.585938 0 22.195313-6.972657 27.015625-17.757813 1.425782-3.191406 4.675782-5.230468 8.132813-5.042968 3.488281.144531 6.535156 2.390624 7.695312 5.683593 10.839844 30.652344 39.910157 51.25 72.355469 51.25s61.515625-20.597656 72.34375-51.25c1.164062-3.292969 4.21875-5.539062 7.699219-5.683593 3.457031-.179688 6.707031 1.851562 8.132812 5.042968 4.828125 10.785156 15.4375 17.757813 27.023438 17.757813h8.535156c12.515625 0 23.773437-8.003907 28.003906-19.925781 1.214844-3.394532 4.429688-5.671876 8.039063-5.671876h4.703125c3.609375 0 6.835937 2.277344 8.039062 5.671876 4.238281 11.921874 15.496094 19.925781 28.015625 19.925781h8.53125c3.167969 0 6.417969-.605469 9.949219-1.859375 2.613281-.9375 5.511719-.527344 7.773437 1.074218 2.261719 1.605469 3.609376 4.191407 3.609376 6.972657v318.078125c0 4.722656-3.820313 8.535156-8.53125 8.535156zm-435.199219-17.066406h426.664062v-298.878906c-1.421875.136718-2.839843.210937-4.265625.210937h-8.53125c-15.507812 0-29.78125-7.773437-38.402344-20.1875-8.617187 12.414063-22.894531 20.1875-38.398437 20.1875h-8.535156c-12.6875 0-24.609375-5.246094-33.253907-14.105469-16.359374 29.371094-47.605468 48.238282-81.945312 48.238282s-65.585938-18.867188-81.945312-48.238282c-8.644532 8.859375-20.566407 14.105469-33.253907 14.105469h-8.535156c-15.503906 0-29.78125-7.773437-38.398437-20.1875-8.621094 12.414063-22.894532 20.1875-38.402344 20.1875h-8.53125c-1.425782 0-2.84375-.074219-4.265625-.210937zm0 0"/><path d="m140.800781 196.265625h-8.535156c-25.878906 0-46.933594-21.058594-46.933594-46.933594v-12.796875c0-4.722656 3.824219-8.535156 8.535157-8.535156h76.800781c4.710937 0 8.53125 3.8125 8.53125 8.535156 0 8.667969 1.527343 17.328125 4.53125 25.777344.742187 2.089844.648437 4.386719-.273438 6.398438-7.609375 16.734374-24.351562 27.554687-42.65625 27.554687zm-38.402343-51.199219v4.265625c0 16.46875 13.398437 29.867188 29.867187 29.867188h8.535156c10.5625 0 20.324219-5.691407 25.660157-14.734375-2.007813-6.386719-3.3125-12.878906-3.925782-19.398438zm0 0"/><path d="m379.734375 196.265625h-8.535156c-18.304688 0-35.046875-10.820313-42.664063-27.554687-.921875-2.011719-1.015625-4.308594-.273437-6.398438 3.011719-8.449219 4.539062-17.109375 4.539062-25.777344 0-4.722656 3.820313-8.535156 8.53125-8.535156h76.800781c4.710938 0 8.535157 3.8125 8.535157 8.535156v12.796875c0 25.875-21.054688 46.933594-46.933594 46.933594zm-34.195313-31.800781c5.335938 9.042968 15.097657 14.734375 25.660157 14.734375h8.535156c16.46875 0 29.867187-13.398438 29.867187-29.867188v-4.265625h-60.136718c-.613282 6.527344-1.917969 13.011719-3.925782 19.398438zm0 0"/><path d="m187.734375 93.867188c-4.710937 0-8.535156-3.816407-8.535156-8.535157v-76.796875c0-4.722656 3.824219-8.535156 8.535156-8.535156s8.53125 3.8125 8.53125 8.535156v76.796875c0 4.71875-3.820313 8.535157-8.53125 8.535157zm0 0"/><path d="m435.199219 512h-128c-4.710938 0-8.53125-3.8125-8.53125-8.535156v-221.863282c0-4.71875 3.820312-8.535156 8.53125-8.535156h128c4.710937 0 8.535156 3.816406 8.535156 8.535156v221.863282c0 4.722656-3.824219 8.535156-8.535156 8.535156zm-119.464844-17.066406h110.933594v-204.800782h-110.933594zm0 0"/><path d="m341.332031 341.332031h-34.132812c-4.710938 0-8.53125-3.8125-8.53125-8.53125s3.820312-8.535156 8.53125-8.535156h34.132812c4.710938 0 8.535157 3.816406 8.535157 8.535156s-3.824219 8.53125-8.535157 8.53125zm0 0"/><path d="m341.332031 460.800781h-34.132812c-4.710938 0-8.53125-3.816406-8.53125-8.535156s3.820312-8.53125 8.53125-8.53125h34.132812c4.710938 0 8.535157 3.8125 8.535157 8.53125s-3.824219 8.535156-8.535157 8.535156zm0 0"/><path d="m401.066406 426.667969c-4.710937 0-8.53125-3.816407-8.53125-8.535157v-25.597656c0-4.722656 3.820313-8.535156 8.53125-8.535156 4.710938 0 8.535156 3.8125 8.535156 8.535156v25.597656c0 4.71875-3.824218 8.535157-8.535156 8.535157zm0 0"/><path d="m264.535156 443.734375h-187.734375c-4.710937 0-8.535156-3.816406-8.535156-8.535156v-153.597657c0-4.71875 3.824219-8.535156 8.535156-8.535156h187.734375c4.707032 0 8.53125 3.816406 8.53125 8.535156v153.597657c0 4.71875-3.824218 8.535156-8.53125 8.535156zm-179.203125-17.066406h170.667969v-136.535157h-170.667969zm0 0"/><path d="m136.535156 366.933594c-2.1875 0-4.371094-.835938-6.035156-2.5-3.335938-3.335938-3.335938-8.730469 0-12.066406l34.132812-34.132813c3.328126-3.335937 8.738282-3.335937 12.066407 0 3.335937 3.335937 3.335937 8.730469 0 12.066406l-34.132813 34.132813c-1.664062 1.664062-3.847656 2.5-6.03125 2.5zm0 0"/><path d="m136.535156 409.601562c-2.1875 0-4.371094-.835937-6.035156-2.5-3.335938-3.339843-3.335938-8.730468 0-12.066406l25.601562-25.601562c3.328126-3.335938 8.738282-3.335938 12.066407 0 3.335937 3.335937 3.335937 8.730468 0 12.066406l-25.601563 25.601562c-1.664062 1.664063-3.847656 2.5-6.03125 2.5zm0 0"/><path d="m187.734375 358.398438c-2.1875 0-4.371094-.835938-6.035156-2.5-3.335938-3.335938-3.335938-8.726563 0-12.066407l25.601562-25.597656c3.328125-3.335937 8.738281-3.335937 12.066407 0 3.335937 3.335937 3.335937 8.730469 0 12.066406l-25.601563 25.597657c-1.664063 1.664062-3.847656 2.5-6.03125 2.5zm0 0"/><path d="m401.066406 401.066406h-25.601562c-4.707032 0-8.53125-3.8125-8.53125-8.53125 0-4.722656 3.824218-8.535156 8.53125-8.535156h25.601562c4.710938 0 8.535156 3.8125 8.535156 8.535156 0 4.71875-3.824218 8.53125-8.535156 8.53125zm0 0"/></svg>